# xmcd
#
# Track frame offsets: 
#        150
#        19362
#        34510
#        49397
#        91557
#        107982
#
# Disc length: 1656 seconds
#
# Revision: 1
# Processed by: cddbd v1.5.2PL0 Copyright (c) Steve Scherf et al.
# Submitted via: ExactAudioCopy v0.99pb5
#
DISCID=44067606
DTITLE=A Tribe Called Quest - Bonita Applebum [CDS)
DYEAR=1990
DGENRE=Hip-Hop
TTITLE0=Bonita Applebum (UK Radio Edit)
TTITLE1=Bonita Applebum (Radio Edit)
TTITLE2=Bonita Applebum (RMX)
TTITLE3=Bonita Applebum (UK 12'' Mix)
TTITLE4=Bonita Applebum
TTITLE5=Bonita Applebum (Instr.)
EXTD=
EXTT0=
EXTT1=
EXTT2=
EXTT3=
EXTT4=
EXTT5=
PLAYORDER=
